<?xml version="1.0" encoding="utf-8"?>
<!-- Generator: Adobe Illustrator 18.0.0, SVG Export Plug-In . SVG Version: 6.00 Build 0)  -->
<!DOCTYPE svg PUBLIC "-//W3C//DTD SVG 1.1//EN" "http://www.w3.org/Graphics/SVG/1.1/DTD/svg11.dtd">
<svg version="1.1" id="Layer_1" xmlns="http://www.w3.org/2000/svg" xmlns:xlink="http://www.w3.org/1999/xlink" x="0px" y="0px"
	 viewBox="0 0 191 59" enable-background="new 0 0 191 59" xml:space="preserve">
<g id="logo_1_">
	<path fill="#F2F2F2" d="M133.5,24.5l-11.8,34.2h6.9l2.3-7.4h12l2.3,7.4h6.9l-11.7-34.2H133.5z M132.7,45.9l4.2-13.4h0.1l4.2,13.4
		H132.7z"/>
	<rect x="153.9" y="24.5" fill="#F2F2F2" width="6.9" height="34.2"/>
	<path fill="#F2F2F2" d="M189.7,55.8c-0.3-1-0.4-2-0.4-3v-2.5c0-2-0.4-3.8-1.3-5.2c-0.9-1.4-2.3-2.4-4.4-3c1.8-0.8,3.1-1.8,4.1-3.1
		c0.9-1.3,1.4-2.8,1.4-4.6c0-3.2-1.1-5.7-3.3-7.4c-2.2-1.8-5.2-2.7-9.1-2.7h-12.9v34.2h6.9V45h6.5c1.7,0,3,0.5,3.9,1.4
		c0.9,0.9,1.4,2.3,1.4,4v2.4c0,1,0.1,2.2,0.3,3.3c0.2,1.2,0.6,2,1.2,2.5h7.1v-0.5C190.4,57.6,190,56.9,189.7,55.8z M180.8,38.5
		c-0.9,0.8-2.4,1.2-4.3,1.2h-5.9v-10h6c1.8,0,3.2,0.5,4.2,1.4c0.9,0.9,1.4,2.2,1.4,3.7C182.3,36.5,181.8,37.7,180.8,38.5z"/>
	<polygon fill="#1A1A1A" points="55.4,2.7 44.2,2.7 44.2,58.6 80.3,58.6 80.3,50 55.4,50 	"/>
	<path fill="#1A1A1A" d="M113.8,39c0,3.7-1,6.5-3,8.3s-4.8,2.7-8.3,2.7c-3.5,0-6.2-0.9-8.1-2.7c-2-1.8-3-4.6-3-8.3V1.9H80.2V39
		c0,6.3,2.1,11.1,6.2,14.5c4.1,3.4,9.5,5.1,16.2,5.1c6.7,0,12.1-1.7,16.3-5.1c4.1-3.4,6.2-8.2,6.2-14.5V1.9h-11.3V39z"/>
	<g>
		<path fill="#1A1A1A" d="M39.6,34.2c-1.7-2.4-4.2-3.9-7.5-4.6c2.6-1,4.6-2.6,6-4.6c1.4-2,2.1-4.3,2.1-6.9c0-5.1-1.8-8.9-5.5-11.5
			C30.9,4,25.7,2.7,19.1,2.7h-7.7L0.2,0.6v2.1c0,0,0,3.3,0,5.3c0,0.6,0,1.1,0,1.2c0,6.8,0,33.2,0,33.2l11.2,2.1V33.9h11.2
			c2.9,0,5,0.7,6.3,2.2c1.3,1.4,2,3.5,2,6.3c0,2.5-0.8,4.4-2.3,5.7C27,49.4,24.8,50,21.8,50h-9.4h-0.9H0.2v8.6h21.6
			c6.5,0,11.5-1.4,15-4.1c3.5-2.8,5.3-6.8,5.3-12.2C42.1,39.3,41.3,36.5,39.6,34.2z M26.4,24.3c-1.6,1.2-3.9,1.8-6.9,1.8h-8.1V11.4
			h7.7c3.2,0,5.7,0.6,7.3,1.8c1.6,1.2,2.4,3.1,2.4,5.7C28.9,21.3,28.1,23.1,26.4,24.3z"/>
	</g>
</g>
</svg>
